<svg width="145" height="20" viewBox="0 0 145 20" fill="none" xmlns="http://www.w3.org/2000/svg">
<path d="M144.59 2.50715C144.59 3.67807 143.668 4.61009 142.498 4.61009C141.328 4.61009 140.395 3.67807 140.395 2.50715C140.395 1.33328 141.328 0.416016 142.512 0.416016C143.668 0.418965 144.59 1.33328 144.59 2.50715ZM140.919 2.50715C140.919 3.43622 141.605 4.17652 142.512 4.17652C143.394 4.18832 144.068 3.43917 144.068 2.51895C144.068 1.58693 143.397 0.837782 142.487 0.837782C141.602 0.837782 140.919 1.58988 140.919 2.50715ZM142.175 3.58959H141.7V1.49845C141.887 1.47486 142.149 1.43651 142.484 1.43651C142.87 1.43651 143.046 1.49845 143.181 1.60168C143.308 1.69311 143.394 1.84353 143.394 2.04704C143.394 2.30069 143.207 2.46586 142.971 2.54255V2.56909C143.169 2.63398 143.27 2.79914 143.331 3.07934C143.394 3.39788 143.443 3.5129 143.481 3.58959H142.982C142.919 3.5129 142.881 3.33594 142.821 3.07934C142.783 2.86403 142.659 2.7608 142.397 2.7608H142.172V3.58959H142.175ZM142.187 2.41867H142.412C142.671 2.41867 142.884 2.33019 142.884 2.11488C142.884 1.92317 142.749 1.79634 142.449 1.79634C142.325 1.79634 142.239 1.81109 142.19 1.82289V2.41867H142.187Z" fill="white"/>
<path d="M7.48095 13.4582H3.73231V19.6667H0.41011V0.333313H7.85841C12.2611 0.333313 15.0416 2.87571 15.0416 6.82498C15.0387 11.1872 11.6387 13.4582 7.48095 13.4582ZM7.59044 3.4302H3.73231V10.3938H7.59044C10.0972 10.3938 11.6676 8.98395 11.6676 6.91051C11.6676 4.61292 10.0713 3.4302 7.59044 3.4302Z" fill="white"/>
<path d="M31.9058 19.6697L27.2668 12.9273H23.109V19.6697H19.7897V0.333313H28.209C32.557 0.333313 35.228 2.684 35.228 6.47105C35.228 9.67707 33.3638 11.603 30.7245 12.3492L35.8187 19.6697H31.9058ZM27.9411 3.4302H23.109V9.92187H27.9641C30.3412 9.92187 31.8539 8.65067 31.8539 6.65982C31.8539 4.53034 30.3989 3.4302 27.9411 3.4302Z" fill="white"/>
<path d="M40.6538 0.333313V19.6697H54.7868V16.6377H43.9702V11.4379H53.4441V8.39997H43.9702V3.37416H54.6658V0.333313H40.6538Z" fill="white"/>
<path d="M67.3754 8.45009C71.3661 9.44994 73.4407 10.9099 73.4407 14.1395C73.4407 17.7938 70.6573 19.9469 66.7012 19.9469C63.8054 19.9469 61.0854 18.9235 58.8178 16.8559L60.8146 14.4227C62.6212 16.0242 64.4307 16.9326 66.779 16.9326C68.8276 16.9326 70.1213 15.9711 70.1213 14.4758C70.1213 13.063 69.3693 12.3197 65.8598 11.488C61.8374 10.497 59.5727 9.27888 59.5727 5.68944C59.5727 2.31825 62.2725 0.0531006 66.0154 0.0531006C68.7729 0.0531006 70.9569 0.911381 72.8759 2.48637L71.0952 5.05236C69.401 3.75167 67.6895 3.06151 65.9664 3.06151C64.0273 3.06151 62.892 4.0879 62.892 5.3827C62.892 6.90755 63.7564 7.57117 67.3754 8.45009Z" fill="white"/>
<path d="M82.2144 0.333313H78.8951V19.6697H82.2144V0.333313Z" fill="white"/>
<path d="M95.6566 19.6697H88.6146V0.333313H95.6566C101.589 0.333313 105.698 4.50379 105.698 9.97791C105.695 15.4461 101.589 19.6697 95.6566 19.6697ZM95.6566 3.4302H91.9339V16.5817H95.6566C99.6271 16.5817 102.215 13.8416 102.215 10.0281C102.215 6.2174 99.6271 3.4302 95.6566 3.4302Z" fill="white"/>
<path d="M114.575 0.333313H111.258V19.6697H114.575V0.333313Z" fill="white"/>
<path d="M129.982 20C124.182 20 120.139 15.4933 120.139 10.028C120.139 4.56275 124.242 0 130.036 0C135.839 0 139.888 4.50081 139.888 9.97493C139.888 15.449 135.788 20 129.982 20ZM129.982 3.12048C126.233 3.12048 123.614 6.19673 123.614 9.97493C123.614 13.762 126.285 16.8766 130.036 16.8766C133.791 16.8766 136.413 13.8151 136.413 10.0251C136.413 6.24687 133.736 3.12048 129.982 3.12048Z" fill="white"/>
<path d="M129.982 20C124.182 20 120.139 15.4933 120.139 10.028C120.139 4.56275 124.242 0 130.036 0C135.839 0 139.888 4.50081 139.888 9.97493C139.888 15.449 135.788 20 129.982 20ZM129.982 3.12048C126.233 3.12048 123.614 6.19673 123.614 9.97493C123.614 13.762 126.285 16.8766 130.036 16.8766C133.791 16.8766 136.413 13.8151 136.413 10.0251C136.413 6.24687 133.736 3.12048 129.982 3.12048Z" fill="white"/>
</svg>
