<svg xmlns="http://www.w3.org/2000/svg" width="487" height="101" fill="#0f172a"><path d="M9.103 90.112v9.922h-2.3v-4.065H2.3v4.065H0v-9.922h2.3v3.908h4.503v-3.908h2.3ZM19.64 99.02c-.79-.78-1.18-1.9-1.18-3.363v-5.555h2.3v5.468c0 1.773.741 2.66 2.213 2.66.721 0 1.267-.214 1.647-.643.38-.429.565-1.101.565-2.017v-5.468h2.271v5.555c0 1.453-.39 2.573-1.18 3.363-.789.79-1.89 1.179-3.313 1.179-1.423 0-2.524-.39-3.314-1.18h-.01ZM45.819 100.034v-5.956l-2.934 4.903h-1.033l-2.904-4.776v5.829h-2.154v-9.922h1.9l3.714 6.17 3.655-6.17h1.88l.03 9.922h-2.154ZM63.948 97.909h-4.61l-.878 2.125h-2.349l4.425-9.922h2.271l4.435 9.922h-2.407l-.878-2.125h-.01Zm-.722-1.745-1.569-3.801-1.569 3.801h3.148-.01ZM84.454 90.112v9.922h-1.88l-4.942-6.024v6.024H75.36v-9.922h1.9l4.932 6.023v-6.023h2.271-.01ZM111.521 97.909h-4.61l-.877 2.125h-2.349l4.425-9.922h2.271l4.434 9.922h-2.407l-.877-2.125h-.01Zm-.721-1.745-1.57-3.801-1.569 3.801h3.148-.009ZM122.924 90.112h2.301v9.922h-2.301v-9.922ZM125.156 30.94h-11.384v47.739h11.384v-47.74ZM77.408 26.193c-14.152 0-25.741 11.657-25.741 25.81 0 14.151 11.696 25.808 25.848 25.808 5.273 0 10.77-1.667 14.464-4.435v4.211h11.092V52.002c0-14.152-11.511-25.809-25.673-25.809h.01Zm.146 40.244c-8.05 0-14.435-6.384-14.435-14.435 0-8.05 6.384-14.435 14.435-14.435 8.05 0 14.435 6.384 14.435 14.435 0 8.05-6.384 14.435-14.435 14.435ZM11.51 78.688V49.546c0-5.546 4.718-10.273 10.547-10.273 5.555 0 10.273 4.717 10.273 10.273v29.142h11.657v-28.87c0-11.939-9.99-21.929-21.93-21.929-3.89 0-7.495 1.111-10.546 2.778V12.899H.127v65.79H11.51ZM99.875 7.111c4.905-.957 5.855-1.908 6.812-6.813.026-.132.215-.132.24 0 .957 4.905 1.908 5.856 6.813 6.813.132.025.132.214 0 .24-4.905.957-5.856 1.907-6.813 6.812-.025.133-.214.133-.24 0-.957-4.905-1.907-5.855-6.812-6.812-.133-.026-.133-.215 0-.24ZM100.807 21.442c2.512-.49 2.997-.976 3.488-3.488.013-.063.107-.063.12 0 .491 2.512.976 2.997 3.488 3.488.063.013.063.107 0 .12-2.512.491-2.997.976-3.488 3.488-.013.063-.107.063-.12 0-.491-2.512-.976-2.997-3.488-3.488-.063-.013-.063-.107 0-.12ZM110.302 15.259c6.416-1.285 7.776-2.645 9.061-9.061.05-.246.403-.246.453 0 1.285 6.416 2.645 7.776 9.061 9.06.245.051.245.404 0 .454-6.416 1.285-7.776 2.645-9.061 9.06-.05.247-.403.247-.453 0-1.285-6.415-2.645-7.775-9.061-9.06-.246-.05-.246-.403 0-.453Z"/><rect width="4" height="85" x="159.061" y="7.699" rx="2"/><path d="M215.453 76.92c-3.936 0-7.704-.553-11.304-1.657-3.6-1.152-6.456-2.616-8.568-4.392l3.24-7.272c2.016 1.584 4.512 2.904 7.488 3.96a27.153 27.153 0 0 0 9.144 1.584c2.64 0 4.776-.288 6.408-.864 1.632-.576 2.832-1.344 3.6-2.304.768-1.008 1.152-2.136 1.152-3.384 0-1.536-.552-2.76-1.656-3.672-1.104-.96-2.544-1.704-4.32-2.232-1.728-.576-3.672-1.104-5.832-1.584a114.617 114.617 0 0 1-6.408-1.656c-2.112-.672-4.056-1.512-5.832-2.52a13.075 13.075 0 0 1-4.248-4.176c-1.104-1.728-1.656-3.936-1.656-6.624 0-2.736.72-5.232 2.16-7.488 1.488-2.304 3.72-4.128 6.696-5.472 3.024-1.392 6.84-2.088 11.448-2.088 3.024 0 6.024.384 9 1.152 2.976.768 5.568 1.872 7.776 3.312l-2.952 7.272c-2.256-1.344-4.584-2.328-6.984-2.952-2.4-.672-4.704-1.008-6.912-1.008-2.592 0-4.704.312-6.336.936-1.584.624-2.76 1.44-3.528 2.448-.72 1.008-1.08 2.16-1.08 3.456 0 1.536.528 2.784 1.584 3.744 1.104.912 2.52 1.632 4.248 2.16 1.776.528 3.744 1.056 5.904 1.584 2.16.48 4.296 1.032 6.408 1.656 2.16.624 4.104 1.44 5.832 2.448a11.614 11.614 0 0 1 4.248 4.104c1.104 1.728 1.656 3.912 1.656 6.552 0 2.688-.744 5.184-2.232 7.488-1.44 2.256-3.672 4.08-6.696 5.472-3.024 1.344-6.84 2.016-11.448 2.016Zm50.105-.217c-3.12 0-5.976-.72-8.568-2.16-2.544-1.44-4.584-3.6-6.12-6.48-1.488-2.928-2.232-6.624-2.232-11.088 0-4.512.72-8.208 2.16-11.088 1.488-2.88 3.504-5.016 6.048-6.408 2.544-1.44 5.448-2.16 8.712-2.16 3.792 0 7.128.816 10.008 2.448 2.928 1.632 5.232 3.912 6.912 6.84 1.728 2.928 2.592 6.384 2.592 10.368s-.864 7.464-2.592 10.44c-1.68 2.928-3.984 5.208-6.912 6.84-2.88 1.632-6.216 2.448-10.008 2.448Zm-21.312 13.464V37.751h8.568v9.072l-.288 10.224.72 10.224v22.896h-9ZM264.55 69c2.16 0 4.08-.48 5.76-1.44 1.728-.96 3.096-2.352 4.104-4.176 1.008-1.824 1.512-3.96 1.512-6.408 0-2.496-.504-4.632-1.512-6.408-1.008-1.824-2.376-3.216-4.104-4.176-1.68-.96-3.6-1.44-5.76-1.44-2.16 0-4.104.48-5.832 1.44-1.728.96-3.096 2.352-4.104 4.176-1.008 1.776-1.512 3.912-1.512 6.408 0 2.448.504 4.584 1.512 6.408 1.008 1.824 2.376 3.216 4.104 4.176 1.728.96 3.672 1.44 5.832 1.44Zm47.128 7.704c-4.272 0-8.016-.84-11.232-2.52-3.168-1.728-5.64-4.08-7.416-7.056-1.728-2.976-2.592-6.36-2.592-10.152 0-3.84.84-7.224 2.52-10.152 1.728-2.976 4.08-5.304 7.056-6.984 3.024-1.68 6.456-2.52 10.296-2.52 3.744 0 7.08.816 10.008 2.448 2.928 1.632 5.232 3.936 6.912 6.912 1.68 2.976 2.52 6.48 2.52 10.512 0 .384-.024.816-.072 1.296 0 .48-.024.936-.072 1.368h-32.04V53.88h27.288l-3.528 1.872c.048-2.208-.408-4.152-1.368-5.832-.96-1.68-2.28-3-3.96-3.96-1.632-.96-3.528-1.44-5.688-1.44-2.208 0-4.152.48-5.832 1.44-1.632.96-2.928 2.304-3.888 4.032-.912 1.68-1.368 3.672-1.368 5.976v1.44c0 2.304.528 4.344 1.584 6.12 1.056 1.776 2.544 3.144 4.464 4.104 1.92.96 4.128 1.44 6.624 1.44 2.16 0 4.104-.336 5.832-1.008 1.728-.672 3.264-1.728 4.608-3.168l4.824 5.544c-1.728 2.016-3.912 3.576-6.552 4.68-2.592 1.056-5.568 1.584-8.928 1.584Zm44.357 0c-4.032 0-7.632-.84-10.8-2.52-3.12-1.728-5.568-4.08-7.344-7.056-1.776-2.976-2.664-6.36-2.664-10.152 0-3.84.888-7.224 2.664-10.152 1.776-2.976 4.224-5.304 7.344-6.984 3.168-1.68 6.768-2.52 10.8-2.52 3.744 0 7.032.768 9.864 2.304 2.88 1.488 5.064 3.696 6.552 6.624l-6.912 4.032c-1.152-1.824-2.568-3.168-4.248-4.032-1.632-.864-3.408-1.296-5.328-1.296-2.208 0-4.2.48-5.976 1.44-1.776.96-3.168 2.352-4.176 4.176-1.008 1.776-1.512 3.912-1.512 6.408 0 2.496.504 4.656 1.512 6.48 1.008 1.776 2.4 3.144 4.176 4.104 1.776.96 3.768 1.44 5.976 1.44 1.92 0 3.696-.432 5.328-1.296 1.68-.864 3.096-2.208 4.248-4.032l6.912 4.032c-1.488 2.88-3.672 5.112-6.552 6.696-2.832 1.536-6.12 2.304-9.864 2.304Zm23.844-.504V37.751h9V76.2h-9Zm4.536-44.784c-1.68 0-3.072-.528-4.176-1.584-1.056-1.056-1.584-2.328-1.584-3.816 0-1.536.528-2.808 1.584-3.816 1.104-1.056 2.496-1.584 4.176-1.584 1.68 0 3.048.504 4.104 1.512 1.104.96 1.656 2.184 1.656 3.672 0 1.584-.528 2.928-1.584 4.032-1.056 1.056-2.448 1.584-4.176 1.584ZM401.916 76.2V35.591c0-4.032 1.176-7.248 3.528-9.648 2.4-2.448 5.808-3.672 10.224-3.672 1.584 0 3.072.168 4.464.504 1.44.336 2.64.864 3.6 1.584l-2.448 6.768a6.503 6.503 0 0 0-2.304-1.152 8.37 8.37 0 0 0-2.664-.432c-1.872 0-3.288.528-4.248 1.584-.96 1.008-1.44 2.544-1.44 4.608v4.32l.288 4.032V76.2h-9Zm-6.336-30.96v-7.2h25.632v7.2H395.58Zm54.675 30.96v-7.776l-.504-1.656V53.16c0-2.64-.792-4.68-2.376-6.12-1.584-1.488-3.984-2.232-7.2-2.232-2.16 0-4.296.336-6.408 1.008-2.064.672-3.816 1.608-5.256 2.808l-3.528-6.552c2.064-1.584 4.512-2.76 7.344-3.528a32.592 32.592 0 0 1 8.928-1.224c5.568 0 9.864 1.344 12.888 4.032 3.072 2.64 4.608 6.744 4.608 12.312V76.2h-8.496Zm-12.096.504c-2.88 0-5.4-.48-7.56-1.44-2.16-1.008-3.84-2.376-5.04-4.104-1.152-1.776-1.728-3.768-1.728-5.976 0-2.16.504-4.104 1.512-5.832 1.056-1.728 2.76-3.096 5.112-4.104 2.352-1.008 5.472-1.512 9.36-1.512h11.16v5.976h-10.512c-3.072 0-5.136.504-6.192 1.512-1.056.96-1.584 2.16-1.584 3.6 0 1.632.648 2.928 1.944 3.888 1.296.96 3.096 1.44 5.4 1.44 2.208 0 4.176-.504 5.904-1.512 1.776-1.008 3.048-2.496 3.816-4.464l1.512 5.4c-.864 2.256-2.424 4.008-4.68 5.256-2.208 1.248-5.016 1.872-8.424 1.872Zm32.142-.504V37.751h9V76.2h-9Zm4.536-44.784c-1.68 0-3.072-.528-4.176-1.584-1.056-1.056-1.584-2.328-1.584-3.816 0-1.536.528-2.808 1.584-3.816 1.104-1.056 2.496-1.584 4.176-1.584 1.68 0 3.048.504 4.104 1.512 1.104.96 1.656 2.184 1.656 3.672 0 1.584-.528 2.928-1.584 4.032-1.056 1.056-2.448 1.584-4.176 1.584Z"/></svg>