<svg width="20" height="20" viewBox="0 0 20 13" fill="none" xmlns="http://www.w3.org/2000/svg">
<g clip-path="url(#clip0_4900_427)">
<path d="M5.65774 4.79029L5.78932 5.3824C5.78932 5.57976 5.85511 5.71134 5.98669 5.90871V6.04029L5.9209 6.23766L5.46037 6.50082L5.32879 6.56661L5.13142 6.50082L4.86827 6.17187L4.6709 5.77713C4.14458 6.36924 3.48669 6.69819 2.763 6.69819C2.1709 6.69819 1.71037 6.50082 1.44721 6.17187C1.11827 5.90871 0.920898 5.44819 0.920898 4.92187C0.920898 4.39555 1.11827 3.93503 1.513 3.60608C1.90774 3.21134 2.43406 3.07976 3.15774 3.07976C3.64708 3.07709 4.13435 3.14353 4.60511 3.27713V2.81661C4.60511 2.29029 4.47353 1.96134 4.27616 1.76397C4.07879 1.50082 3.74985 1.43503 3.22353 1.43503L2.49985 1.50082C2.18328 1.58164 1.87494 1.69177 1.57879 1.82976H1.44721C1.38142 1.82976 1.31564 1.76397 1.31564 1.6324V1.30345L1.38142 1.10608C1.38142 1.04029 1.44721 0.974501 1.57879 0.974501L2.36827 0.645554L3.4209 0.513975C4.21037 0.513975 4.73669 0.711343 5.13142 1.04029C5.46037 1.43503 5.65774 1.96134 5.65774 2.68503V4.79029ZM3.02616 5.84292L3.68406 5.71134C3.94721 5.64555 4.14458 5.44819 4.34195 5.25082L4.53932 4.85608L4.60511 4.26397V4.00082C4.1948 3.90956 3.77542 3.86542 3.35511 3.86924C2.96037 3.86924 2.63142 3.93503 2.36827 4.1324C2.1709 4.26397 2.10511 4.52713 2.10511 4.85608C2.10511 5.18503 2.1709 5.3824 2.30248 5.57976C2.49985 5.71134 2.69721 5.84292 3.02616 5.84292ZM8.28932 6.50082L8.02616 6.43503L7.89458 6.23766L6.38142 1.10608L6.31563 0.842922L6.44721 0.711343H7.10511L7.36827 0.777133L7.49985 1.04029L8.61827 5.3824L9.60511 1.04029L9.73669 0.777133L9.99985 0.711343H10.5262L10.7893 0.777133L10.9209 1.04029L11.9735 5.44819L13.092 1.04029L13.2235 0.777133L13.4867 0.711343H14.0788C14.2104 0.711343 14.2762 0.777133 14.2762 0.842922V0.974501L14.2104 1.10608L12.6314 6.23766L12.4998 6.50082L12.2367 6.56661H11.6446L11.3814 6.50082L11.3156 6.23766L10.263 1.96134L9.27616 6.17187L9.14458 6.43503L8.88142 6.50082H8.28932ZM16.7762 6.69819C16.1628 6.69354 15.5574 6.55901 14.9998 6.30345L14.8025 6.10608L14.7367 5.9745V5.64555C14.7367 5.51397 14.8025 5.44819 14.8683 5.44819H14.9998L15.1972 5.51397C15.6713 5.73355 16.1879 5.84587 16.7104 5.84292C17.1051 5.84292 17.4341 5.71134 17.6314 5.57976C17.8946 5.44819 17.9604 5.25082 17.9604 4.98766L17.8288 4.52713L17.1709 4.19819L16.1841 3.86924C15.7235 3.73766 15.3288 3.4745 15.1314 3.21134C15.0036 3.04386 14.9106 2.85249 14.8578 2.6485C14.8051 2.44451 14.7937 2.23203 14.8244 2.02358C14.855 1.81513 14.9271 1.61492 15.0363 1.43474C15.1455 1.25457 15.2897 1.09809 15.4604 0.974501L16.1183 0.645554C16.5408 0.500762 16.9912 0.455727 17.4341 0.513975C17.7007 0.564905 17.9643 0.630798 18.2235 0.711343L18.4867 0.842922L18.6841 0.974501L18.7498 1.23766V1.50082C18.7498 1.69819 18.6841 1.76397 18.6183 1.76397L18.3551 1.6324C17.9604 1.50082 17.5656 1.43503 17.1051 1.43503C16.7104 1.43503 16.3814 1.43503 16.1841 1.56661C15.9867 1.69819 15.9209 1.89555 15.9209 2.15871C15.9209 2.35608 15.9867 2.48766 16.1183 2.61924C16.2498 2.75082 16.4472 2.8824 16.8419 3.01397L17.763 3.27713C18.2235 3.4745 18.5525 3.67187 18.7498 3.93503C18.9472 4.19819 19.0788 4.52713 19.0788 4.85608L18.8814 5.64555L18.4209 6.17187C18.2235 6.36924 17.9604 6.50082 17.6972 6.56661L16.7762 6.69819Z" fill="#252F3E"/>
<path fill-rule="evenodd" clip-rule="evenodd" d="M18.0262 9.92184C15.3425 11.7143 12.1367 12.5584 8.91827 12.32C5.69984 12.0816 2.6534 10.7743 0.263067 8.60605C-9.04351e-05 8.40869 0.197278 8.21132 0.394646 8.3429C3.00843 9.82355 5.92572 10.688 8.92421 10.8704C11.9227 11.0529 14.9233 10.5484 17.6973 9.39553C18.0262 9.26395 18.3552 9.65869 18.0262 9.92184Z" fill="#FF9900"/>
<path fill-rule="evenodd" clip-rule="evenodd" d="M18.8813 8.86924C18.6181 8.5403 17.0392 8.67188 16.3813 8.80345C16.1181 8.80345 16.1181 8.60609 16.3155 8.47451C17.5655 7.61924 19.605 7.8824 19.8023 8.14556C20.0655 8.47451 19.7365 10.514 18.6181 11.5008C18.4208 11.6324 18.2234 11.5666 18.2892 11.3692C18.6181 10.7113 19.1444 9.19819 18.8813 8.86924Z" fill="#FF9900"/>
</g>
<defs>
<clipPath id="clip0_4900_427">
<rect width="20" height="11.9737" fill="white" transform="translate(0 0.448242)"/>
</clipPath>
</defs>
</svg>
