<svg width="22" height="18" viewBox="0 0 22 18" fill="none" xmlns="http://www.w3.org/2000/svg">
<path d="M1.58223 15.7849V17.4717H1.1912V16.7807H0.425702V17.4717H0.034668V15.7849H0.425702V16.4493H1.1912V15.7849H1.58223Z" fill="#020617"/>
<path d="M3.37309 17.2995C3.23888 17.167 3.17261 16.9764 3.17261 16.7279V15.7834H3.56364V16.713C3.56364 17.0145 3.68957 17.1653 3.93976 17.1653C4.06237 17.1653 4.15516 17.1289 4.21978 17.056C4.2844 16.9831 4.31588 16.8687 4.31588 16.713V15.7834H4.70195V16.7279C4.70195 16.9748 4.63567 17.1653 4.50146 17.2995C4.36725 17.4337 4.18001 17.5 3.9381 17.5C3.69619 17.5 3.50896 17.4337 3.37475 17.2995H3.37309Z" fill="#020617"/>
<path d="M7.82386 17.4717V16.4593L7.32513 17.2927H7.14949L6.65573 16.4808V17.4717H6.28955V15.7849H6.61265L7.24394 16.8337L7.86528 15.7849H8.18507L8.19004 17.4717H7.82386Z" fill="#020617"/>
<path d="M10.9059 17.1105H10.1222L9.97305 17.4717H9.57373L10.326 15.7849H10.712L11.4659 17.4717H11.0567L10.9076 17.1105H10.9059ZM10.7833 16.8139L10.5165 16.1677L10.2498 16.8139H10.7849H10.7833Z" fill="#020617"/>
<path d="M14.3923 15.7849V17.4717H14.0726L13.2325 16.4477V17.4717H12.8464V15.7849H13.1695L14.0079 16.8089V15.7849H14.394H14.3923Z" fill="#020617"/>
<path d="M18.9933 17.1105H18.2096L18.0605 17.4717H17.6611L18.4134 15.7849H18.7994L19.5533 17.4717H19.1441L18.995 17.1105H18.9933ZM18.8707 16.8139L18.6039 16.1677L18.3372 16.8139H18.8723H18.8707Z" fill="#020617"/>
<path d="M20.9319 15.7849H21.3229V17.4717H20.9319V15.7849Z" fill="#020617"/>
<path d="M21.311 5.72583H19.3757V13.8415H21.311V5.72583Z" fill="#020617"/>
<path d="M13.194 4.91895C10.7882 4.91895 8.81812 6.90063 8.81812 9.30649C8.81812 11.7124 10.8064 13.694 13.2123 13.694C14.1087 13.694 15.0432 13.4107 15.6711 12.9401V13.6559H17.5567V9.30649C17.5567 6.90063 15.5999 4.91895 13.1924 4.91895H13.194ZM13.2189 11.7604C11.8503 11.7604 10.765 10.6751 10.765 9.30649C10.765 7.93787 11.8503 6.85258 13.2189 6.85258C14.5875 6.85258 15.6728 7.93787 15.6728 9.30649C15.6728 10.6751 14.5875 11.7604 13.2189 11.7604Z" fill="#020617"/>
<path d="M1.99144 13.8432V8.88899C1.99144 7.9462 2.79339 7.14259 3.78422 7.14259C4.72867 7.14259 5.53062 7.94454 5.53062 8.88899V13.8432H7.5123V8.93538C7.5123 6.90565 5.81395 5.20729 3.78422 5.20729C3.12311 5.20729 2.51005 5.39618 1.99144 5.67952V2.65894H0.0561523V13.8432H1.99144Z" fill="#020617"/>
<path d="M17.0134 1.67505C17.8473 1.51235 18.0089 1.35071 18.1716 0.516859C18.1759 0.49438 18.208 0.49438 18.2123 0.516859C18.375 1.35071 18.5366 1.51235 19.3705 1.67505C19.393 1.67933 19.393 1.71144 19.3705 1.71573C18.5366 1.87843 18.375 2.04006 18.2123 2.87392C18.208 2.8964 18.1759 2.8964 18.1716 2.87392C18.0089 2.04006 17.8473 1.87843 17.0134 1.71573C16.991 1.71144 16.991 1.67933 17.0134 1.67505Z" fill="#020617"/>
<path d="M17.1721 4.11129C17.5992 4.0278 17.6816 3.94538 17.7651 3.51828C17.7672 3.50758 17.7833 3.50758 17.7854 3.51828C17.8689 3.94538 17.9514 4.0278 18.3784 4.11129C18.3891 4.11343 18.3891 4.12949 18.3784 4.13163C17.9514 4.21512 17.8689 4.29755 17.7854 4.72464C17.7833 4.73535 17.7672 4.73535 17.7651 4.72464C17.6816 4.29755 17.5992 4.21512 17.1721 4.13163C17.1614 4.12949 17.1614 4.11343 17.1721 4.11129Z" fill="#020617"/>
<path d="M18.7864 3.05992C19.8772 2.84156 20.1084 2.61035 20.3268 1.51959C20.3353 1.47784 20.3953 1.47784 20.4038 1.51959C20.6222 2.61035 20.8534 2.84156 21.9442 3.05992C21.9859 3.06848 21.9859 3.12843 21.9442 3.13699C20.8534 3.35536 20.6222 3.58657 20.4038 4.67732C20.3953 4.71907 20.3353 4.71907 20.3268 4.67732C20.1084 3.58657 19.8772 3.35536 18.7864 3.13699C18.7447 3.12843 18.7447 3.06848 18.7864 3.05992Z" fill="#020617"/>
</svg>
