<svg width="440" height="103" viewBox="0 0 440 103" fill="none" xmlns="http://www.w3.org/2000/svg">
  <g clip-path="url(#clip0_719_6566)">
    <path d="M9.34 92.249V102.429H6.98V98.259H2.36V102.429H0V92.249H2.36V96.259H6.98V92.249H9.34Z" fill="white"/>
    <path d="M20.1494 101.389C19.3394 100.589 18.9395 99.4393 18.9395 97.9393V92.2393H21.2994V97.8493C21.2994 99.6693 22.0594 100.579 23.5694 100.579C24.3094 100.579 24.8694 100.359 25.2594 99.9193C25.6494 99.4793 25.8394 98.7893 25.8394 97.8493V92.2393H28.1694V97.9393C28.1694 99.4293 27.7694 100.579 26.9594 101.389C26.1494 102.199 25.0194 102.599 23.5594 102.599C22.0994 102.599 20.9694 102.199 20.1594 101.389H20.1494Z" fill="white"/>
    <path d="M47.01 102.429V96.319L44 101.349H42.94L39.96 96.449V102.429H37.75V92.249H39.7L43.51 98.579L47.26 92.249H49.19L49.22 102.429H47.01Z" fill="white"/>
    <path d="M65.6103 100.249H60.8803L59.9803 102.429H57.5703L62.1103 92.249H64.4403L68.9903 102.429H66.5203L65.6203 100.249H65.6103ZM64.8703 98.459L63.2603 94.559L61.6503 98.459H64.8803H64.8703Z" fill="white"/>
    <path d="M86.6503 92.249V102.429H84.7203L79.6503 96.249V102.429H77.3203V92.249H79.2703L84.3303 98.429V92.249H86.6603H86.6503Z" fill="white"/>
    <path d="M114.421 100.249H109.691L108.791 102.429H106.381L110.921 92.249H113.251L117.801 102.429H115.331L114.431 100.249H114.421ZM113.681 98.459L112.071 94.559L110.461 98.459H113.691H113.681Z" fill="white"/>
    <path d="M126.119 92.249H128.479V102.429H126.119V92.249Z" fill="white"/>
    <path d="M128.41 31.54H116.73V80.52H128.41V31.54Z" fill="white"/>
    <path d="M79.4198 26.6699C64.8998 26.6699 53.0098 38.6299 53.0098 53.1499C53.0098 67.6699 65.0098 79.6299 79.5298 79.6299C84.9398 79.6299 90.5798 77.9199 94.3698 75.0799V79.3999H105.75V53.1499C105.75 38.6299 93.9398 26.6699 79.4098 26.6699H79.4198ZM79.5698 67.9599C71.3098 67.9599 64.7598 61.4099 64.7598 53.1499C64.7598 44.8899 71.3098 38.3399 79.5698 38.3399C87.8298 38.3399 94.3798 44.8899 94.3798 53.1499C94.3798 61.4099 87.8298 67.9599 79.5698 67.9599Z" fill="white"/>
    <path d="M11.8109 80.5293V50.6293C11.8109 44.9393 16.6509 40.0893 22.6309 40.0893C28.3309 40.0893 33.1709 44.9293 33.1709 50.6293V80.5293H45.1309V50.9093C45.1309 38.6593 34.8809 28.4093 22.6309 28.4093C18.6409 28.4093 14.9409 29.5493 11.8109 31.2593V13.0293H0.130859V80.5293H11.8109Z" fill="white"/>
    <path d="M102.471 7.09174C107.503 6.10978 108.479 5.13428 109.461 0.101749C109.487 -0.0339163 109.681 -0.0339163 109.706 0.101749C110.688 5.13428 111.664 6.10978 116.696 7.09174C116.832 7.11758 116.832 7.31138 116.696 7.33722C111.664 8.31918 110.688 9.29468 109.706 14.3272C109.681 14.4629 109.487 14.4629 109.461 14.3272C108.479 9.29468 107.503 8.31918 102.471 7.33722C102.335 7.31138 102.335 7.11758 102.471 7.09174Z" fill="white"/>
    <path d="M103.427 21.7954C106.005 21.2915 106.502 20.7941 107.006 18.2164C107.019 18.1518 107.116 18.1518 107.129 18.2164C107.633 20.7941 108.13 21.2915 110.708 21.7954C110.773 21.8083 110.773 21.9052 110.708 21.9181C108.13 22.422 107.633 22.9195 107.129 25.4971C107.116 25.5617 107.019 25.5617 107.006 25.4971C106.502 22.9195 106.005 22.422 103.427 21.9181C103.363 21.9052 103.363 21.8083 103.427 21.7954Z" fill="white"/>
    <path d="M113.169 15.4511C119.752 14.1332 121.148 12.7378 122.466 6.15478C122.517 5.90283 122.879 5.90283 122.931 6.15478C124.249 12.7378 125.644 14.1332 132.227 15.4511C132.479 15.5028 132.479 15.8645 132.227 15.9162C125.644 17.2341 124.249 18.6295 122.931 25.2125C122.879 25.4645 122.517 25.4645 122.466 25.2125C121.148 18.6295 119.752 17.2341 113.169 15.9162C112.917 15.8645 112.917 15.5028 113.169 15.4511Z" fill="white"/>
    <path d="M388.57 81.0002V29.2002H411.214C416.838 29.2002 421.772 30.2855 426.014 32.4562C430.257 34.6269 433.562 37.6362 435.93 41.4842C438.298 45.3322 439.482 49.8709 439.482 55.1002C439.482 60.2802 438.298 64.8189 435.93 68.7162C433.562 72.5642 430.257 75.5735 426.014 77.7442C421.772 79.9149 416.838 81.0002 411.214 81.0002H388.57ZM398.19 72.8602H410.77C414.668 72.8602 418.022 72.1202 420.834 70.6402C423.696 69.1602 425.891 67.0882 427.42 64.4242C428.999 61.7602 429.788 58.6522 429.788 55.1002C429.788 51.4989 428.999 48.3909 427.42 45.7762C425.891 43.1122 423.696 41.0402 420.834 39.5602C418.022 38.0802 414.668 37.3402 410.77 37.3402H398.19V72.8602Z" fill="white"/>
    <path d="M344.271 81.0002V29.2002H353.891V72.8602H380.975V81.0002H344.271Z" fill="white"/>
    <path d="M320.641 81.0002V29.2002H330.261V81.0002H320.641Z" fill="white"/>
    <path d="M284.525 81.7402C277.421 81.7402 271.846 79.7422 267.801 75.7462C263.805 71.7502 261.807 65.9782 261.807 58.4302V29.2002H271.427V58.0602C271.427 63.3882 272.561 67.2609 274.831 69.6782C277.149 72.0955 280.405 73.3042 284.599 73.3042C288.792 73.3042 292.023 72.0955 294.293 69.6782C296.562 67.2609 297.697 63.3882 297.697 58.0602V29.2002H307.169V58.4302C307.169 65.9782 305.146 71.7502 301.101 75.7462C297.105 79.7422 291.579 81.7402 284.525 81.7402Z" fill="white"/>
    <path d="M205.955 81.0002V29.2002H230.227C236.443 29.2002 241.179 30.4335 244.435 32.9002C247.691 35.3175 249.319 38.5735 249.319 42.6682C249.319 45.4309 248.678 47.7989 247.395 49.7722C246.112 51.6962 244.386 53.2009 242.215 54.2862C240.094 55.3222 237.775 55.8402 235.259 55.8402L236.591 53.1762C239.502 53.1762 242.116 53.7189 244.435 54.8042C246.754 55.8402 248.579 57.3695 249.911 59.3922C251.292 61.4149 251.983 63.9309 251.983 66.9402C251.983 71.3802 250.281 74.8335 246.877 77.3002C243.473 79.7669 238.416 81.0002 231.707 81.0002H205.955ZM215.575 73.4522H231.115C234.716 73.4522 237.479 72.8602 239.403 71.6762C241.327 70.4922 242.289 68.5929 242.289 65.9782C242.289 63.4129 241.327 61.5382 239.403 60.3542C237.479 59.1209 234.716 58.5042 231.115 58.5042H214.835V51.0302H229.191C232.546 51.0302 235.111 50.4382 236.887 49.2542C238.712 48.0702 239.625 46.2942 239.625 43.9262C239.625 41.5089 238.712 39.7082 236.887 38.5242C235.111 37.3402 232.546 36.7482 229.191 36.7482H215.575V73.4522Z" fill="white"/>
    <path d="M167 12.5C167 12.2239 167.224 12 167.5 12V12C167.776 12 168 12.2239 168 12.5V96.5C168 96.7761 167.776 97 167.5 97V97C167.224 97 167 96.7761 167 96.5V12.5Z" fill="white"/>
  </g>
  <defs>
    <clipPath id="clip0_719_6566">
      <rect width="440" height="103" fill="white"/>
    </clipPath>
  </defs>
</svg>
